<mxfile host="app.diagrams.net" agent="Mozilla/5.0 (Windows NT 10.0; Win64; x64) AppleWebKit/537.36 (KHTML, like Gecko) Chrome/130.0.0.0 Safari/537.36 Edg/130.0.0.0" version="24.8.4">
  <diagram name="Assignment01" id="YQNJQ6a5uJNEXBnVBi4n">
    <mxGraphModel dx="1448" dy="288" grid="1" gridSize="10" guides="1" tooltips="1" connect="1" arrows="1" fold="1" page="1" pageScale="1" pageWidth="850" pageHeight="1100" math="0" shadow="0">
      <root>
        <mxCell id="0" />
        <mxCell id="1" parent="0" />
        <mxCell id="TGg97sCdS2oQXF3Zb6yF-17" value="" style="rounded=0;whiteSpace=wrap;html=1;" parent="1" vertex="1">
          <mxGeometry x="-840" y="30" width="1200" height="550" as="geometry" />
        </mxCell>
        <mxCell id="TGg97sCdS2oQXF3Zb6yF-1" value="&amp;lt;&amp;lt;&lt;span class=&quot;hljs-keyword&quot;&gt;abstract&lt;/span&gt;&amp;gt;&amp;gt;          Employee&amp;nbsp;" style="swimlane;fontStyle=1;align=center;verticalAlign=top;childLayout=stackLayout;horizontal=1;startSize=26;horizontalStack=0;resizeParent=1;resizeParentMax=0;resizeLast=0;collapsible=1;marginBottom=0;whiteSpace=wrap;html=1;" parent="1" vertex="1">
          <mxGeometry x="-765" y="40" width="470" height="240" as="geometry" />
        </mxCell>
        <mxCell id="TGg97sCdS2oQXF3Zb6yF-2" value="- id: &lt;span class=&quot;hljs-keyword&quot;&gt;int&lt;/span&gt;         &lt;br&gt;   - fullName: &lt;span class=&quot;hljs-keyword&quot;&gt;string&lt;/span&gt;&lt;br&gt;   - hireDate: &lt;span class=&quot;hljs-keyword&quot;&gt;string&lt;/span&gt;&lt;br&gt;   - address: &lt;span class=&quot;hljs-keyword&quot;&gt;string&lt;/span&gt;" style="text;strokeColor=none;fillColor=none;align=left;verticalAlign=top;spacingLeft=4;spacingRight=4;overflow=hidden;rotatable=0;points=[[0,0.5],[1,0.5]];portConstraint=eastwest;whiteSpace=wrap;html=1;" parent="TGg97sCdS2oQXF3Zb6yF-1" vertex="1">
          <mxGeometry y="26" width="470" height="64" as="geometry" />
        </mxCell>
        <mxCell id="TGg97sCdS2oQXF3Zb6yF-3" value="" style="line;strokeWidth=1;fillColor=none;align=left;verticalAlign=middle;spacingTop=-1;spacingLeft=3;spacingRight=3;rotatable=0;labelPosition=right;points=[];portConstraint=eastwest;strokeColor=inherit;" parent="TGg97sCdS2oQXF3Zb6yF-1" vertex="1">
          <mxGeometry y="90" width="470" height="8" as="geometry" />
        </mxCell>
        <mxCell id="TGg97sCdS2oQXF3Zb6yF-4" value="&amp;lt;&amp;lt;constructor&amp;gt;&amp;gt; + &lt;span class=&quot;hljs-title function_ invoke__&quot;&gt;Employee&lt;/span&gt;()&lt;br&gt;&amp;lt;&amp;lt;constructor&amp;gt;&amp;gt; + &lt;span class=&quot;hljs-title function_ invoke__&quot;&gt;Employee&lt;/span&gt;(&lt;span class=&quot;hljs-attr&quot;&gt;id&lt;/span&gt;: &lt;span class=&quot;hljs-keyword&quot;&gt;int&lt;/span&gt;, &lt;span class=&quot;hljs-attr&quot;&gt;fullName&lt;/span&gt;: &lt;span class=&quot;hljs-keyword&quot;&gt;string&lt;/span&gt;, &lt;span class=&quot;hljs-attr&quot;&gt;hireDate&lt;/span&gt;: &lt;span class=&quot;hljs-keyword&quot;&gt;string&lt;/span&gt;, &lt;span class=&quot;hljs-attr&quot;&gt;address&lt;/span&gt;: &lt;span class=&quot;hljs-keyword&quot;&gt;string&lt;/span&gt;)&lt;br&gt;&amp;lt;&amp;lt;constructor&amp;gt;&amp;gt; + &lt;span class=&quot;hljs-title function_ invoke__&quot;&gt;Employee&lt;/span&gt;(&lt;span class=&quot;hljs-attr&quot;&gt;other&lt;/span&gt;: Employee)&lt;br&gt;&amp;lt;&amp;lt;constructor&amp;gt;&amp;gt; + &lt;span class=&quot;hljs-title function_ invoke__&quot;&gt;Employee&lt;/span&gt;(&lt;span class=&quot;hljs-attr&quot;&gt;other&lt;/span&gt;: Employee&amp;amp;&amp;amp;) noexcept&lt;br&gt;&amp;lt;&amp;lt;constructor&amp;gt;&amp;gt; + &lt;span class=&quot;hljs-title function_ invoke__&quot;&gt;Employee&lt;/span&gt;(&lt;span class=&quot;hljs-attr&quot;&gt;data&lt;/span&gt;: &lt;span class=&quot;hljs-keyword&quot;&gt;string&lt;/span&gt;)&lt;div&gt;&lt;br&gt;&amp;lt;&amp;lt;virtual&amp;gt;&amp;gt; + &lt;span class=&quot;hljs-title function_ invoke__&quot;&gt;input&lt;/span&gt;() : &lt;span class=&quot;hljs-keyword&quot;&gt;void&lt;/span&gt;&lt;br&gt;&amp;lt;&amp;lt;virtual&amp;gt;&amp;gt; + &lt;span class=&quot;hljs-keyword&quot;&gt;print&lt;/span&gt;() &lt;span class=&quot;hljs-keyword&quot;&gt;const&lt;/span&gt; : &lt;span class=&quot;hljs-keyword&quot;&gt;void&lt;/span&gt;&lt;/div&gt;&lt;div&gt;&lt;span class=&quot;hljs-keyword&quot;&gt;&amp;lt;&amp;lt;pure virtual&amp;gt;&amp;gt; +&amp;nbsp;&lt;span class=&quot;hljs-title function_ invoke__&quot;&gt;computeSalary&lt;/span&gt;()&amp;nbsp;&lt;span class=&quot;hljs-keyword&quot;&gt;const&lt;/span&gt;&amp;nbsp;:&amp;nbsp;&lt;span class=&quot;hljs-keyword&quot;&gt;int&lt;/span&gt;&lt;br&gt;&lt;/span&gt;&lt;/div&gt;" style="text;strokeColor=none;fillColor=none;align=left;verticalAlign=top;spacingLeft=4;spacingRight=4;overflow=hidden;rotatable=0;points=[[0,0.5],[1,0.5]];portConstraint=eastwest;whiteSpace=wrap;html=1;" parent="TGg97sCdS2oQXF3Zb6yF-1" vertex="1">
          <mxGeometry y="98" width="470" height="142" as="geometry" />
        </mxCell>
        <mxCell id="TGg97sCdS2oQXF3Zb6yF-5" value="    &amp;lt;&amp;lt;concrete&amp;gt;&amp;gt;          OfficeEmployee : Employee&lt;br/&gt;&lt;br&gt;      " style="swimlane;fontStyle=1;align=center;verticalAlign=top;childLayout=stackLayout;horizontal=1;startSize=26;horizontalStack=0;resizeParent=1;resizeParentMax=0;resizeLast=0;collapsible=1;marginBottom=0;whiteSpace=wrap;html=1;" parent="1" vertex="1">
          <mxGeometry x="-830" y="360" width="600" height="210" as="geometry" />
        </mxCell>
        <mxCell id="TGg97sCdS2oQXF3Zb6yF-6" value="- workingDays: &lt;span class=&quot;hljs-keyword&quot;&gt;int&lt;/span&gt;&lt;br/&gt;    - payRatePerDay: &lt;span class=&quot;hljs-keyword&quot;&gt;const&lt;/span&gt; &lt;span class=&quot;hljs-variable constant_&quot;&gt;int&lt;/span&gt; = &lt;span class=&quot;hljs-number&quot;&gt;300000&lt;/span&gt;" style="text;strokeColor=none;fillColor=none;align=left;verticalAlign=top;spacingLeft=4;spacingRight=4;overflow=hidden;rotatable=0;points=[[0,0.5],[1,0.5]];portConstraint=eastwest;whiteSpace=wrap;html=1;" parent="TGg97sCdS2oQXF3Zb6yF-5" vertex="1">
          <mxGeometry y="26" width="600" height="34" as="geometry" />
        </mxCell>
        <mxCell id="TGg97sCdS2oQXF3Zb6yF-7" value="" style="line;strokeWidth=1;fillColor=none;align=left;verticalAlign=middle;spacingTop=-1;spacingLeft=3;spacingRight=3;rotatable=0;labelPosition=right;points=[];portConstraint=eastwest;strokeColor=inherit;" parent="TGg97sCdS2oQXF3Zb6yF-5" vertex="1">
          <mxGeometry y="60" width="600" height="8" as="geometry" />
        </mxCell>
        <mxCell id="TGg97sCdS2oQXF3Zb6yF-8" value="&amp;lt;&amp;lt;constructor&amp;gt;&amp;gt; + &lt;span class=&quot;hljs-title function_ invoke__&quot;&gt;OfficeEmployee&lt;/span&gt;()&lt;br&gt;&amp;lt;&amp;lt;constructor&amp;gt;&amp;gt; + &lt;span class=&quot;hljs-title function_ invoke__&quot;&gt;OfficeEmployee&lt;/span&gt;(&lt;span class=&quot;hljs-attr&quot;&gt;id&lt;/span&gt;: &lt;span class=&quot;hljs-keyword&quot;&gt;int&lt;/span&gt;, &lt;span class=&quot;hljs-attr&quot;&gt;fullName&lt;/span&gt;: &lt;span class=&quot;hljs-keyword&quot;&gt;string&lt;/span&gt;, &lt;span class=&quot;hljs-attr&quot;&gt;hireDate&lt;/span&gt;: &lt;span class=&quot;hljs-keyword&quot;&gt;string&lt;/span&gt;, &lt;span class=&quot;hljs-attr&quot;&gt;address&lt;/span&gt;: &lt;span class=&quot;hljs-keyword&quot;&gt;string&lt;/span&gt;, &lt;span class=&quot;hljs-attr&quot;&gt;workingDays&lt;/span&gt;: &lt;span class=&quot;hljs-keyword&quot;&gt;int&lt;/span&gt;)&lt;br&gt;&amp;lt;&amp;lt;constructor&amp;gt;&amp;gt; + &lt;span class=&quot;hljs-title function_ invoke__&quot;&gt;OfficeEmployee&lt;/span&gt;(&lt;span class=&quot;hljs-attr&quot;&gt;other&lt;/span&gt;: OfficeEmployee)&lt;br&gt;&amp;lt;&amp;lt;constructor&amp;gt;&amp;gt; + &lt;span class=&quot;hljs-title function_ invoke__&quot;&gt;OfficeEmployee&lt;/span&gt;(&lt;span class=&quot;hljs-attr&quot;&gt;other&lt;/span&gt;: OfficeEmployee&amp;amp;&amp;amp;) noexcept&lt;br&gt;&amp;lt;&amp;lt;constructor&amp;gt;&amp;gt; + &lt;span class=&quot;hljs-title function_ invoke__&quot;&gt;OfficeEmployee&lt;/span&gt;(&lt;span class=&quot;hljs-attr&quot;&gt;data&lt;/span&gt;: &lt;span class=&quot;hljs-keyword&quot;&gt;string&lt;/span&gt;)&lt;div&gt;&lt;br&gt;&amp;lt;&amp;lt;override&amp;gt;&amp;gt; + &lt;span class=&quot;hljs-title function_ invoke__&quot;&gt;input&lt;/span&gt;() : &lt;span class=&quot;hljs-keyword&quot;&gt;void&lt;/span&gt;&lt;br&gt;&amp;lt;&amp;lt;override&amp;gt;&amp;gt; + &lt;span class=&quot;hljs-keyword&quot;&gt;print&lt;/span&gt;() &lt;span class=&quot;hljs-keyword&quot;&gt;const&lt;/span&gt; : &lt;span class=&quot;hljs-keyword&quot;&gt;void&lt;/span&gt;&lt;br&gt;&amp;lt;&amp;lt;override&amp;gt;&amp;gt; + &lt;span class=&quot;hljs-title function_ invoke__&quot;&gt;computeSalary&lt;/span&gt;() &lt;span class=&quot;hljs-keyword&quot;&gt;const&lt;/span&gt; : &lt;span class=&quot;hljs-keyword&quot;&gt;int&lt;/span&gt;&lt;/div&gt;" style="text;strokeColor=none;fillColor=none;align=left;verticalAlign=top;spacingLeft=4;spacingRight=4;overflow=hidden;rotatable=0;points=[[0,0.5],[1,0.5]];portConstraint=eastwest;whiteSpace=wrap;html=1;" parent="TGg97sCdS2oQXF3Zb6yF-5" vertex="1">
          <mxGeometry y="68" width="600" height="142" as="geometry" />
        </mxCell>
        <mxCell id="TGg97sCdS2oQXF3Zb6yF-10" value="&amp;lt;&amp;lt;concrete&amp;gt;&amp;gt;          Worker : Employee&amp;nbsp;      " style="swimlane;fontStyle=1;align=center;verticalAlign=top;childLayout=stackLayout;horizontal=1;startSize=26;horizontalStack=0;resizeParent=1;resizeParentMax=0;resizeLast=0;collapsible=1;marginBottom=0;whiteSpace=wrap;html=1;" parent="1" vertex="1">
          <mxGeometry x="-210" y="55" width="560" height="210" as="geometry" />
        </mxCell>
        <mxCell id="TGg97sCdS2oQXF3Zb6yF-11" value="- itemsProduced: &lt;span class=&quot;hljs-keyword&quot;&gt;int&lt;/span&gt;&lt;br/&gt;    - payRatePerItem: &lt;span class=&quot;hljs-keyword&quot;&gt;const&lt;/span&gt; &lt;span class=&quot;hljs-variable constant_&quot;&gt;int&lt;/span&gt; = &lt;span class=&quot;hljs-number&quot;&gt;20000&lt;/span&gt;" style="text;strokeColor=none;fillColor=none;align=left;verticalAlign=top;spacingLeft=4;spacingRight=4;overflow=hidden;rotatable=0;points=[[0,0.5],[1,0.5]];portConstraint=eastwest;whiteSpace=wrap;html=1;" parent="TGg97sCdS2oQXF3Zb6yF-10" vertex="1">
          <mxGeometry y="26" width="560" height="34" as="geometry" />
        </mxCell>
        <mxCell id="TGg97sCdS2oQXF3Zb6yF-12" value="" style="line;strokeWidth=1;fillColor=none;align=left;verticalAlign=middle;spacingTop=-1;spacingLeft=3;spacingRight=3;rotatable=0;labelPosition=right;points=[];portConstraint=eastwest;strokeColor=inherit;" parent="TGg97sCdS2oQXF3Zb6yF-10" vertex="1">
          <mxGeometry y="60" width="560" height="8" as="geometry" />
        </mxCell>
        <mxCell id="TGg97sCdS2oQXF3Zb6yF-13" value="&amp;lt;&amp;lt;constructor&amp;gt;&amp;gt; + &lt;span class=&quot;hljs-title function_ invoke__&quot;&gt;Worker&lt;/span&gt;()&lt;br&gt;&amp;lt;&amp;lt;constructor&amp;gt;&amp;gt; + &lt;span class=&quot;hljs-title function_ invoke__&quot;&gt;Worker&lt;/span&gt;(&lt;span class=&quot;hljs-attr&quot;&gt;id&lt;/span&gt;: &lt;span class=&quot;hljs-keyword&quot;&gt;int&lt;/span&gt;, &lt;span class=&quot;hljs-attr&quot;&gt;fullName&lt;/span&gt;: &lt;span class=&quot;hljs-keyword&quot;&gt;string&lt;/span&gt;, &lt;span class=&quot;hljs-attr&quot;&gt;hireDate&lt;/span&gt;: &lt;span class=&quot;hljs-keyword&quot;&gt;string&lt;/span&gt;, &lt;span class=&quot;hljs-attr&quot;&gt;address&lt;/span&gt;: &lt;span class=&quot;hljs-keyword&quot;&gt;string&lt;/span&gt;, &lt;span class=&quot;hljs-attr&quot;&gt;itemsProduced&lt;/span&gt;: &lt;span class=&quot;hljs-keyword&quot;&gt;int&lt;/span&gt;)&lt;br&gt;&amp;lt;&amp;lt;constructor&amp;gt;&amp;gt; + &lt;span class=&quot;hljs-title function_ invoke__&quot;&gt;Worker&lt;/span&gt;(&lt;span class=&quot;hljs-attr&quot;&gt;other&lt;/span&gt;: Worker)&lt;br&gt;&amp;lt;&amp;lt;constructor&amp;gt;&amp;gt; + &lt;span class=&quot;hljs-title function_ invoke__&quot;&gt;Worker&lt;/span&gt;(&lt;span class=&quot;hljs-attr&quot;&gt;other&lt;/span&gt;: Worker&amp;amp;&amp;amp;) noexcept&lt;br&gt;&amp;lt;&amp;lt;constructor&amp;gt;&amp;gt; + &lt;span class=&quot;hljs-title function_ invoke__&quot;&gt;Worker&lt;/span&gt;(&lt;span class=&quot;hljs-attr&quot;&gt;data&lt;/span&gt;: &lt;span class=&quot;hljs-keyword&quot;&gt;string&lt;/span&gt;)&lt;div&gt;&lt;br&gt;&amp;lt;&amp;lt;override&amp;gt;&amp;gt; + &lt;span class=&quot;hljs-title function_ invoke__&quot;&gt;input&lt;/span&gt;() : &lt;span class=&quot;hljs-keyword&quot;&gt;void&lt;/span&gt;&lt;br&gt;&amp;lt;&amp;lt;override&amp;gt;&amp;gt; + &lt;span class=&quot;hljs-keyword&quot;&gt;print&lt;/span&gt;() &lt;span class=&quot;hljs-keyword&quot;&gt;const&lt;/span&gt; : &lt;span class=&quot;hljs-keyword&quot;&gt;void&lt;/span&gt;&lt;br&gt;&amp;lt;&amp;lt;override&amp;gt;&amp;gt; + &lt;span class=&quot;hljs-title function_ invoke__&quot;&gt;computeSalary&lt;/span&gt;() &lt;span class=&quot;hljs-keyword&quot;&gt;const&lt;/span&gt; : &lt;span class=&quot;hljs-keyword&quot;&gt;int&lt;/span&gt;&lt;/div&gt;" style="text;strokeColor=none;fillColor=none;align=left;verticalAlign=top;spacingLeft=4;spacingRight=4;overflow=hidden;rotatable=0;points=[[0,0.5],[1,0.5]];portConstraint=eastwest;whiteSpace=wrap;html=1;" parent="TGg97sCdS2oQXF3Zb6yF-10" vertex="1">
          <mxGeometry y="68" width="560" height="142" as="geometry" />
        </mxCell>
        <mxCell id="TGg97sCdS2oQXF3Zb6yF-14" value="Extends" style="endArrow=block;endSize=16;endFill=0;html=1;rounded=0;entryX=1;entryY=0.157;entryDx=0;entryDy=0;entryPerimeter=0;exitX=-0.002;exitY=0.263;exitDx=0;exitDy=0;exitPerimeter=0;" parent="1" source="TGg97sCdS2oQXF3Zb6yF-13" target="TGg97sCdS2oQXF3Zb6yF-4" edge="1">
          <mxGeometry x="0.0014" width="160" relative="1" as="geometry">
            <mxPoint x="-400" y="240" as="sourcePoint" />
            <mxPoint x="-240" y="240" as="targetPoint" />
            <mxPoint as="offset" />
          </mxGeometry>
        </mxCell>
        <mxCell id="TGg97sCdS2oQXF3Zb6yF-15" value="Extends" style="endArrow=block;endSize=16;endFill=0;html=1;rounded=0;exitX=0.5;exitY=0;exitDx=0;exitDy=0;entryX=0.501;entryY=1.004;entryDx=0;entryDy=0;entryPerimeter=0;" parent="1" source="TGg97sCdS2oQXF3Zb6yF-5" target="TGg97sCdS2oQXF3Zb6yF-4" edge="1">
          <mxGeometry width="160" relative="1" as="geometry">
            <mxPoint x="-650" y="260" as="sourcePoint" />
            <mxPoint x="-490" y="260" as="targetPoint" />
          </mxGeometry>
        </mxCell>
      </root>
    </mxGraphModel>
  </diagram>
</mxfile>
